HIERARCHY
ROOT Hips
{
	OFFSET 0.000000 100.481300 0.000000
	CHANNELS 6 Xposition Yposition Zposition Xrotation Yrotation Zrotation
	JOINT Spine
	{
		OFFSET -0.279200 12.230698 -2.892100
		CHANNELS 3 Xrotation Yrotation Zrotation
		JOINT Spine1
		{
			OFFSET -0.325700 14.269203 -3.374200
			CHANNELS 3 Xrotation Yrotation Zrotation
			JOINT Spine2
			{
				OFFSET -0.372300 16.307602 -0.352600
				CHANNELS 3 Xrotation Yrotation Zrotation
				JOINT Neck
				{
					OFFSET -0.418800 17.814194 8.416900
					CHANNELS 3 Xrotation Yrotation Zrotation
					JOINT Head
					{
						OFFSET 0.000000 7.031097 3.806800
						CHANNELS 3 Xrotation Yrotation Zrotation
						JOINT HeadTop_End
						{
							OFFSET 0.000000 24.646606 12.978600
							CHANNELS 3 Xrotation Yrotation Zrotation
							End Site
							{
								OFFSET 0.000000 27.854965 0.000000
							}
						}
					}
				}
				JOINT LeftShoulder
				{
					OFFSET 16.952999 14.495407 -7.737500
					CHANNELS 3 Xrotation Yrotation Zrotation
					JOINT LeftArm
					{
						OFFSET 9.308998 -2.777710 0.208600
						CHANNELS 3 Xrotation Yrotation Zrotation
						JOINT LeftForeArm
						{
							OFFSET 29.972298 0.000000 0.000000
							CHANNELS 3 Xrotation Yrotation Zrotation
							JOINT LeftHand
							{
								OFFSET 26.026505 0.000000 0.000000
								CHANNELS 3 Xrotation Yrotation Zrotation
								JOINT LeftHandThumb1
								{
									OFFSET 12.240501 -7.147949 9.207150
									CHANNELS 3 Xrotation Yrotation Zrotation
									JOINT LeftHandThumb2
									{
										OFFSET 4.138618 -2.389435 2.389433
										CHANNELS 3 Xrotation Yrotation Zrotation
										JOINT LeftHandThumb3
										{
											OFFSET 2.726913 -1.574387 1.574386
											CHANNELS 3 Xrotation Yrotation Zrotation
											JOINT LeftHandThumb4
											{
												OFFSET 3.941010 -2.275345 2.275342
												CHANNELS 3 Xrotation Yrotation Zrotation
												End Site
												{
													OFFSET -0.005798 5.087799 0.009903
												}
											}
										}
									}
								}
								JOINT LeftHandIndex1
								{
									OFFSET 24.424698 -1.985611 5.953459
									CHANNELS 3 Xrotation Yrotation Zrotation
									JOINT LeftHandIndex2
									{
										OFFSET 6.426697 0.000000 0.000000
										CHANNELS 3 Xrotation Yrotation Zrotation
										JOINT LeftHandIndex3
										{
											OFFSET 5.337898 0.000000 0.000000
											CHANNELS 3 Xrotation Yrotation Zrotation
											JOINT LeftHandIndex4
											{
												OFFSET 4.409401 0.000000 0.000000
												CHANNELS 3 Xrotation Yrotation Zrotation
												End Site
												{
													OFFSET 0.000000 4.409363 0.014373
												}
											}
										}
									}
								}
								JOINT LeftHandMiddle1
								{
									OFFSET 23.810104 0.000000 0.000000
									CHANNELS 3 Xrotation Yrotation Zrotation
									JOINT LeftHandMiddle2
									{
										OFFSET 7.176498 0.000000 0.000000
										CHANNELS 3 Xrotation Yrotation Zrotation
										JOINT LeftHandMiddle3
										{
											OFFSET 6.774902 0.000000 0.000000
											CHANNELS 3 Xrotation Yrotation Zrotation
											JOINT LeftHandMiddle4
											{
												OFFSET 5.403328 0.000000 0.000000
												CHANNELS 3 Xrotation Yrotation Zrotation
												End Site
												{
													OFFSET -0.027702 5.403244 0.017414
												}
											}
										}
									}
								}
								JOINT LeftHandRing1
								{
									OFFSET 22.908401 -0.839279 -6.020567
									CHANNELS 3 Xrotation Yrotation Zrotation
									JOINT LeftHandRing2
									{
										OFFSET 6.337502 0.000000 0.000000
										CHANNELS 3 Xrotation Yrotation Zrotation
										JOINT LeftHandRing3
										{
											OFFSET 5.779297 0.000000 0.000000
											CHANNELS 3 Xrotation Yrotation Zrotation
											JOINT LeftHandRing4
											{
												OFFSET 4.965698 0.000000 0.000000
												CHANNELS 3 Xrotation Yrotation Zrotation
												End Site
												{
													OFFSET 0.000000 4.965668 0.016186
												}
											}
										}
									}
								}
								JOINT LeftHandPinky1
								{
									OFFSET 20.037003 -1.530319 -10.950146
									CHANNELS 3 Xrotation Yrotation Zrotation
									JOINT LeftHandPinky2
									{
										OFFSET 5.254700 0.000000 0.000000
										CHANNELS 3 Xrotation Yrotation Zrotation
										JOINT LeftHandPinky3
										{
											OFFSET 4.810204 0.000000 0.000000
											CHANNELS 3 Xrotation Yrotation Zrotation
											JOINT LeftHandPinky4
											{
												OFFSET 3.647202 0.000000 0.000000
												CHANNELS 3 Xrotation Yrotation Zrotation
												End Site
												{
													OFFSET 0.000000 3.647186 0.011889
												}
											}
										}
									}
								}
							}
						}
					}
				}
				JOINT RightShoulder
				{
					OFFSET -15.141001 14.495407 -7.737500
					CHANNELS 3 Xrotation Yrotation Zrotation
					JOINT RightArm
					{
						OFFSET -9.308998 -2.777710 0.208500
						CHANNELS 3 Xrotation Yrotation Zrotation
						JOINT RightForeArm
						{
							OFFSET -29.972300 0.000000 0.000000
							CHANNELS 3 Xrotation Yrotation Zrotation
							JOINT RightHand
							{
								OFFSET -26.026505 0.000000 0.000000
								CHANNELS 3 Xrotation Yrotation Zrotation
								JOINT RightHandThumb1
								{
									OFFSET -12.240601 -7.148026 9.207092
									CHANNELS 3 Xrotation Yrotation Zrotation
									JOINT RightHandThumb2
									{
										OFFSET -4.138618 -2.389435 2.389433
										CHANNELS 3 Xrotation Yrotation Zrotation
										JOINT RightHandThumb3
										{
											OFFSET -2.726974 -1.574417 1.574421
											CHANNELS 3 Xrotation Yrotation Zrotation
											JOINT RightHandThumb4
											{
												OFFSET -3.941010 -2.275345 2.275343
												CHANNELS 3 Xrotation Yrotation Zrotation
												End Site
												{
													OFFSET 0.005814 5.087799 0.009927
												}
											}
										}
									}
								}
								JOINT RightHandIndex1
								{
									OFFSET -24.424698 -1.985657 5.953444
									CHANNELS 3 Xrotation Yrotation Zrotation
									JOINT RightHandIndex2
									{
										OFFSET -6.426697 0.000000 0.000000
										CHANNELS 3 Xrotation Yrotation Zrotation
										JOINT RightHandIndex3
										{
											OFFSET -5.337898 0.000000 0.000000
											CHANNELS 3 Xrotation Yrotation Zrotation
											JOINT RightHandIndex4
											{
												OFFSET -4.409401 0.000000 0.000000
												CHANNELS 3 Xrotation Yrotation Zrotation
												End Site
												{
													OFFSET 0.000000 4.409363 0.014408
												}
											}
										}
									}
								}
								JOINT RightHandMiddle1
								{
									OFFSET -23.810097 0.000000 0.000000
									CHANNELS 3 Xrotation Yrotation Zrotation
									JOINT RightHandMiddle2
									{
										OFFSET -7.176498 0.000000 0.000000
										CHANNELS 3 Xrotation Yrotation Zrotation
										JOINT RightHandMiddle3
										{
											OFFSET -6.774902 0.000000 0.000000
											CHANNELS 3 Xrotation Yrotation Zrotation
											JOINT RightHandMiddle4
											{
												OFFSET -5.403328 0.000000 0.000000
												CHANNELS 3 Xrotation Yrotation Zrotation
												End Site
												{
													OFFSET 0.027702 5.403244 0.017457
												}
											}
										}
									}
								}
								JOINT RightHandRing1
								{
									OFFSET -22.908302 -0.839325 -6.020576
									CHANNELS 3 Xrotation Yrotation Zrotation
									JOINT RightHandRing2
									{
										OFFSET -6.337502 0.000000 0.000000
										CHANNELS 3 Xrotation Yrotation Zrotation
										JOINT RightHandRing3
										{
											OFFSET -5.779297 0.000000 0.000000
											CHANNELS 3 Xrotation Yrotation Zrotation
											JOINT RightHandRing4
											{
												OFFSET -4.965698 0.000000 0.000000
												CHANNELS 3 Xrotation Yrotation Zrotation
												End Site
												{
													OFFSET 0.000000 4.965668 0.016226
												}
											}
										}
									}
								}
								JOINT RightHandPinky1
								{
									OFFSET -20.037003 -1.530334 -10.950259
									CHANNELS 3 Xrotation Yrotation Zrotation
									JOINT RightHandPinky2
									{
										OFFSET -5.254700 0.000000 0.000000
										CHANNELS 3 Xrotation Yrotation Zrotation
										JOINT RightHandPinky3
										{
											OFFSET -4.810204 0.000000 0.000000
											CHANNELS 3 Xrotation Yrotation Zrotation
											JOINT RightHandPinky4
											{
												OFFSET -3.647202 0.000000 0.000000
												CHANNELS 3 Xrotation Yrotation Zrotation
												End Site
												{
													OFFSET 0.000000 3.647186 0.011917
												}
											}
										}
									}
								}
							}
						}
					}
				}
			}
		}
	}
	JOINT LeftUpLeg
	{
		OFFSET 15.427100 -6.655098 0.678600
		CHANNELS 3 Xrotation Yrotation Zrotation
		JOINT LeftLeg
		{
			OFFSET 4.081073 -39.591068 13.024000
			CHANNELS 3 Xrotation Yrotation Zrotation
			JOINT LeftFoot
			{
				OFFSET -4.081074 -37.707932 -15.979700
				CHANNELS 3 Xrotation Yrotation Zrotation
				JOINT LeftToeBase
				{
					OFFSET 5.346399 -15.068900 20.645000
					CHANNELS 3 Xrotation Yrotation Zrotation
					JOINT LeftToe_End
					{
						OFFSET 2.754700 0.931300 11.300900
						CHANNELS 3 Xrotation Yrotation Zrotation
						End Site
						{
							OFFSET 0.000000 11.669021 0.000000
						}
					}
				}
			}
		}
	}
	JOINT RightUpLeg
	{
		OFFSET -15.569500 -6.655098 0.678600
		CHANNELS 3 Xrotation Yrotation Zrotation
		JOINT RightLeg
		{
			OFFSET -4.081825 -39.591045 13.023800
			CHANNELS 3 Xrotation Yrotation Zrotation
			JOINT RightFoot
			{
				OFFSET 4.081824 -37.707954 -15.979600
				CHANNELS 3 Xrotation Yrotation Zrotation
				JOINT RightToeBase
				{
					OFFSET -5.346400 -15.068900 20.645000
					CHANNELS 3 Xrotation Yrotation Zrotation
					JOINT RightToe_End
					{
						OFFSET -2.754700 0.931300 11.300900
						CHANNELS 3 Xrotation Yrotation Zrotation
						End Site
						{
							OFFSET 0.000000 11.669021 0.000000
						}
					}
				}
			}
		}
	}
}
MOTION
Frames: 5
Frame Time: 0.033333
-0.548003 91.451714 -2.804097 0.412047 7.710365 -0.755652 -1.173036 -0.202307 -2.520744 -1.824405 -1.295127 -0.396726 -1.835831 -1.283929 -0.387665 -2.803221 1.086070 1.476154 2.938362 6.909013 3.897484 -0.000000 -0.000000 -0.000000 0.360784 0.929762 -3.776092 -45.202096 -29.007352 -5.129700 0.000003 -0.000012 0.000000 39.326785 10.571843 8.216866 -1.540037 3.690190 6.142346 3.946765 7.971394 0.752843 -0.575600 1.586255 2.542381 0.000001 -0.000000 0.000001 0.012081 0.408606 -3.387884 0.012085 0.408608 -3.387893 0.083207 1.069374 -8.897978 -0.000000 -0.000000 -0.000000 -0.000001 -0.001927 0.015975 0.000001 0.001929 -0.015992 -0.000001 0.000002 -0.000004 -0.000001 0.000001 0.000001 -0.000001 0.000001 -0.000004 -0.000001 -0.000000 -0.000009 -0.000002 0.000001 -0.000005 -0.000000 0.000000 0.000002 0.933761 5.356191 -11.052844 0.133528 -2.675323 -12.017052 0.303112 2.024283 -17.030604 0.000001 -0.000001 0.000001 0.207299 -5.428544 4.885048 -38.747042 1.414180 -10.117424 -0.000004 9.691560 0.000001 13.407992 2.304611 -42.636691 -1.849256 -3.581803 -6.586134 4.645033 -8.656772 -0.231323 -1.269837 0.126086 -2.098665 -0.000002 -0.000003 -0.000000 0.041243 -0.757804 6.230867 0.041251 -0.757796 6.230857 0.092306 -1.131477 9.326863 0.000002 -0.000000 -0.000003 0.000001 -0.000001 -0.000002 0.000001 0.000001 0.000016 0.000001 0.000001 0.000011 -0.000000 -0.000001 0.000000 -0.000003 -0.000001 -0.000012 0.000004 -0.000004 0.000025 -0.000002 0.000000 0.000008 -0.000001 -0.000002 0.000001 0.088326 -1.107067 9.123777 0.088331 -1.107066 9.123791 0.158195 -1.477687 12.220512 0.000001 0.000001 -0.000001 2.201737 6.059125 1.045740 39.174594 5.641834 0.552801 -4.116818 4.681239 -0.958857 -33.657584 0.108378 -3.566291 0.000000 -0.000001 0.000000 -23.217099 -1.894562 4.928232 33.414450 -3.769475 -0.569136 -6.478889 1.958971 -9.998174 -2.070967 0.000001 0.000002 -0.000000 0.000001 -0.000000 
-0.383043 90.275360 -0.534588 1.357829 4.931331 -0.606333 -1.310297 -0.176844 -2.137124 -2.079168 -1.299851 -0.117026 -2.088692 -1.287103 -0.107471 -2.776222 1.521402 1.271739 2.480169 8.751386 3.485102 -0.000000 0.000001 0.000000 0.352423 1.061201 -3.758456 -43.721400 -27.747753 -4.733143 0.000007 -0.000013 -0.000002 38.203478 10.938932 8.492294 -1.540037 3.690191 6.142350 3.946763 7.971393 0.752842 -0.575598 1.586254 2.542377 -0.000001 0.000000 -0.000001 0.009867 0.369271 -3.061405 0.009870 0.369272 -3.061407 0.080187 1.049909 -8.734687 0.000001 0.000001 0.000000 -0.000001 -0.001927 0.015977 0.000002 0.001929 -0.015992 -0.000000 0.000004 -0.000005 -0.000000 -0.000000 0.000000 -0.000001 0.000002 -0.000003 0.000001 -0.000000 -0.000009 -0.000002 0.000001 -0.000004 -0.000001 0.000000 0.000001 0.903198 5.322032 -10.724368 0.125428 -2.713879 -11.690960 0.297368 2.005441 -16.867162 0.000000 -0.000000 -0.000001 0.170518 -5.179785 4.259706 -38.512930 2.407051 -8.946146 0.000005 8.828347 -0.000001 13.245587 5.847765 -42.106006 -1.849255 -3.581801 -6.586138 4.645033 -8.656771 -0.231324 -1.269839 0.126081 -2.098668 0.000001 -0.000003 -0.000000 0.042931 -0.773137 6.357494 0.042943 -0.773138 6.357495 0.093557 -1.139090 9.390187 0.000002 0.000001 -0.000001 0.000001 -0.000001 -0.000000 0.000001 -0.000003 0.000020 0.000002 -0.000003 0.000012 -0.000002 -0.000000 0.000001 -0.000003 -0.000001 -0.000008 0.000007 -0.000003 0.000025 0.000004 0.000003 0.000007 0.000003 0.000000 -0.000000 0.090799 -1.122293 9.250441 0.090800 -1.122291 9.250431 0.159837 -1.485228 12.283867 -0.000002 0.000000 -0.000002 3.444914 6.350709 0.363630 39.541697 6.689877 0.602998 -6.452708 5.943033 -2.168433 -34.886550 0.057331 -2.550288 -0.000000 -0.000000 0.000000 -23.311150 -1.485458 5.634365 35.537177 -5.399925 -0.562654 -10.800045 2.100160 -8.985683 -1.642994 0.000001 -0.000001 0.000000 0.000000 -0.000000 
-0.222317 89.610031 1.642886 2.075405 2.364461 -0.358972 -1.424534 -0.170045 -1.777154 -2.285399 -1.307654 0.108092 -2.293608 -1.293388 0.118175 -2.726757 1.932119 1.068987 2.144915 10.479780 3.095588 0.000000 0.000000 -0.000000 0.349920 1.150267 -3.823804 -42.457235 -26.615845 -4.424693 -0.000001 -0.000009 0.000000 37.347058 11.417985 8.864759 -1.540035 3.690191 6.142351 3.946763 7.971393 0.752845 -0.575601 1.586253 2.542377 -0.000000 0.000000 0.000000 0.007151 0.314405 -2.606219 0.007152 0.314409 -2.606234 0.076067 1.022751 -8.507028 -0.000000 -0.000000 0.000000 -0.000000 -0.001927 0.015972 0.000000 0.001929 -0.015993 -0.000000 0.000003 -0.000009 -0.000000 0.000001 -0.000002 -0.000001 0.000001 -0.000003 -0.000000 -0.000001 -0.000007 -0.000002 0.000002 -0.000006 -0.000002 0.000001 -0.000000 0.860912 5.274115 -10.266450 0.114496 -2.767711 -11.236323 0.289447 1.979138 -16.639318 -0.000001 -0.000001 0.000000 0.141678 -4.930005 3.672321 -38.415911 3.445935 -7.891411 -0.000001 7.852095 -0.000002 13.284832 9.318434 -41.538892 -1.849255 -3.581800 -6.586138 4.645031 -8.656772 -0.231324 -1.269840 0.126084 -2.098662 -0.000001 0.000000 0.000001 0.044612 -0.788029 6.480527 0.044611 -0.788035 6.480532 0.094785 -1.146487 9.451733 0.000001 0.000001 -0.000002 0.000002 0.000002 -0.000008 -0.000001 0.000002 0.000013 -0.000003 -0.000002 0.000008 0.000000 -0.000002 0.000002 -0.000003 0.000002 -0.000012 0.000001 -0.000003 0.000022 -0.000002 -0.000001 0.000006 0.000001 0.000000 -0.000002 0.093215 -1.137087 9.373499 0.093227 -1.137086 9.373503 0.161437 -1.492548 12.345406 0.000001 0.000001 -0.000001 4.018702 6.647441 -0.327004 39.837727 7.814187 0.694752 -7.418467 6.961751 -2.761549 -35.684545 0.043449 -2.184886 -0.000000 0.000000 -0.000000 -22.621954 -1.090954 6.099648 36.664865 -6.625245 -0.564834 -14.572726 2.116851 -7.811672 -0.945865 -0.000000 -0.000004 0.000000 0.000000 0.000000 
-0.134457 89.783730 3.476644 2.290689 0.403221 0.080159 -1.481889 -0.186065 -1.588977 -2.379195 -1.291377 0.150115 -2.387237 -1.275710 0.160493 -2.649828 2.257791 0.868606 2.059554 11.796924 2.775579 -0.000000 -0.000001 -0.000000 0.363787 1.136249 -4.128260 -41.608949 -25.813573 -4.099932 0.000004 -0.000011 0.000001 36.964854 11.987786 9.431691 -1.540035 3.690192 6.142348 3.946764 7.971395 0.752840 -0.575599 1.586254 2.542382 0.000001 0.000000 0.000001 0.004025 0.235851 -1.954763 0.004024 0.235860 -1.954759 0.070363 0.983857 -8.181204 0.000001 0.000000 0.000000 0.000002 -0.001926 0.015973 0.000002 0.001929 -0.015991 -0.000000 0.000002 -0.000005 -0.000001 -0.000000 0.000000 0.000001 0.000002 -0.000006 0.000002 0.000000 -0.000010 -0.000002 0.000001 -0.000007 -0.000000 0.000001 0.000000 0.801077 5.204952 -9.611198 0.099599 -2.844904 -10.585601 0.278291 1.941446 -16.313210 -0.000001 -0.000000 -0.000003 0.122935 -4.703167 3.190694 -38.536207 4.441792 -7.094070 0.000002 6.761522 0.000005 13.812653 12.407220 -41.047565 -1.849252 -3.581801 -6.586133 4.645029 -8.656772 -0.231325 -1.269837 0.126083 -2.098667 0.000000 -0.000003 -0.000001 0.046214 -0.802045 6.596281 0.046226 -0.802054 6.596309 0.095950 -1.153437 9.509608 -0.000001 0.000001 -0.000002 0.000002 -0.000001 -0.000000 0.000002 -0.000000 0.000018 0.000002 0.000000 0.000008 -0.000001 0.000000 0.000000 -0.000003 -0.000001 -0.000006 0.000003 -0.000003 0.000024 0.000004 -0.000001 0.000010 0.000001 0.000000 -0.000000 0.095534 -1.150999 9.489281 0.095538 -1.150998 9.489289 0.162947 -1.499441 12.403319 0.000003 -0.000000 -0.000001 3.156552 6.893684 -1.042598 40.419758 8.993145 0.853780 -6.438164 7.315411 -2.028963 -35.721760 0.070599 -2.773527 0.000000 0.000001 0.000000 -20.714089 -1.087846 6.119313 35.901301 -7.021141 -0.594052 -16.749733 1.995739 -6.834382 -0.538036 -0.000000 -0.000000 0.000000 -0.000000 0.000000 
-0.196816 91.288651 4.739666 1.652720 -0.466875 0.791975 -1.427725 -0.242055 -1.761579 -2.260060 -1.227797 -0.127610 -2.269956 -1.211085 -0.117514 -2.533367 2.428098 0.669210 2.379118 12.352648 2.571120 0.000000 -0.000000 -0.000000 0.404850 0.940387 -4.882708 -41.508491 -25.629754 -3.709584 -0.000000 -0.000011 -0.000002 37.466603 12.665286 10.281744 -1.540037 3.690190 6.142348 3.946764 7.971393 0.752845 -0.575599 1.586254 2.542381 0.000001 -0.000001 -0.000001 0.001086 0.122446 -1.014694 0.001085 0.122449 -1.014700 0.062521 0.927682 -7.711048 0.000001 -0.000001 0.000000 -0.000001 -0.001927 0.015974 0.000001 0.001930 -0.015993 -0.000001 0.000003 -0.000004 -0.000001 0.000001 -0.000001 -0.000001 0.000000 -0.000004 -0.000001 -0.000000 -0.000008 -0.000001 0.000002 -0.000004 -0.000000 -0.000000 -0.000001 0.716149 5.103961 -8.665894 0.079648 -2.956588 -9.646560 0.262574 1.886940 -15.842643 -0.000001 0.000000 -0.000000 0.114644 -4.520629 2.880237 -38.997652 5.341100 -6.766140 -0.000013 5.512988 -0.000002 15.240645 14.648177 -40.697836 -1.849254 -3.581800 -6.586138 4.645029 -8.656773 -0.231321 -1.269838 0.126084 -2.098670 -0.000001 -0.000002 0.000002 0.048010 -0.817318 6.722461 0.048000 -0.817315 6.722444 0.097219 -1.161021 9.572697 -0.000000 0.000003 -0.000004 0.000003 -0.000001 -0.000002 0.000003 -0.000001 0.000018 -0.000001 -0.000001 0.000007 0.000002 -0.000002 0.000002 -0.000003 0.000001 -0.000009 0.000005 -0.000003 0.000024 0.000003 -0.000003 0.000009 0.000001 0.000003 -0.000002 0.098088 -1.166162 9.615464 0.098097 -1.166160 9.615469 0.164593 -1.506940 12.466421 0.000003 -0.000000 -0.000001 -0.102227 7.034707 -1.765239 41.167794 10.071373 1.021399 -2.442915 6.474608 0.860214 -33.872967 0.230080 -5.084704 0.000000 -0.000001 0.000001 -17.042452 -1.949681 5.482305 32.290894 -6.010120 -0.622696 -16.375870 1.770478 -6.467219 -0.501442 -0.000002 0.000002 -0.000000 0.000000 0.000000 
